<?xml version="1.0"?>
<svg xmlns="http://www.w3.org/2000/svg" id="Layer_1" enable-background="new 0 0 510.035 510.035" height="512px" viewBox="0 0 510.035 510.035" width="512px"><g><g><path d="m325.344 0c-18.365 1.66-36.098 4.359-53.111 8.148-96.865 21.57-217.531 93.654-217.531 215.913 0 44.015 15.747 85.585 44.556 118.29 5.524-97.724 45.295-189.627 113.141-260.482 33.69-35.185 72.595-63.076 112.945-81.869z" data-original="#000000" class="active-path" data-old_color="#000000" fill="#FFFFFF"/><path d="m128.574 495.035c0 8.284 6.716 15 15 15s15-6.716 15-15v-75.751c-10.335-3.979-20.366-8.786-30-14.403z" data-original="#000000" class="active-path" data-old_color="#000000" fill="#FFFFFF"/><path d="m454.74 13.446c-1.858-6.413-7.731-10.825-14.407-10.825-69.203.001-146.312 37.383-206.266 99.997-66.805 69.768-104.259 161.56-105.463 258.464 0 .032.002.064.002.096-.019.042-.032.07-.032.07v7.838c2.226 1.621 4.482 3.195 6.774 4.706 69.577 45.856 164.208 38.064 225.272-23.002 52.832-52.832 41.873-125.623 38.263-166.473-5.512-62.365-10.272-116.225 49.469-154.021 5.642-3.569 8.246-10.438 6.388-16.85z" data-original="#000000" class="active-path" data-old_color="#000000" fill="#FFFFFF"/></g></g> </svg>
